<svg version="1.0" viewBox="0 0 1500 1500" xmlns="http://www.w3.org/2000/svg">
  <path d="M750 0A750 750 0 0 0 0 750a750 750 0 0 0 750 750z" style="fill:#0084ff"/>
  <path d="M750 0v1500a750 750 0 0 0 750-750A750 750 0 0 0 750 0z" style="fill:#0070cd"/>
  <path d="M654.1 517c-7.4 1-13 3.8-18.6 9.3a23.8 23.8 0 0 0-6 8 38.6 38.6 0 0 0-2.8 7.3c-.7 3.3-.8 11.2-.8 208.6 0 195.4 0 205.3.8 208.2a46 46 0 0 0 2.8 7.2c1.7 3.5 2.6 4.7 6 8 3.3 3.3 4.6 4.3 8 6 8 4-2.2 3.6 106.4 3.6 108.5 0 98.3.4 106.2-3.6 3.5-1.7 4.8-2.7 8.1-6 3.4-3.3 4.3-4.5 6-8a46 46 0 0 0 2.8-7.2c.7-3 .8-12.8.8-208.4 0-195.7 0-205.5-.8-208.4-.4-1.7-1.7-5-2.8-7.2a23.4 23.4 0 0 0-6-8 31 31 0 0 0-14.5-8.7l-3.4-1h-94.7c-52 0-96 0-97.5.3zm117 30.5c.8.8.7 4.1-.2 4.9-.6.6-3 .7-21 .7s-20.5 0-21.1-.7c-.8-.8-1-4.1-.2-4.9.7-.7 41.8-.7 42.5 0zM851.8 750v166H647.9V584h203.9zm-98.9 180.3c8.5 1.4 15.2 8.1 16.6 16.7 1.7 9.8-4.9 19.7-14.6 22.3a20 20 0 0 1-24.7-16.2 20.2 20.2 0 0 1 16.2-22.8c3.3-.5 3.3-.5 6.5 0zM340.1 516.7v401.6q0 13.4 5.2 19.2 2.7 3.4 5.1 4.4l15.7 4.1q16.4 3.8 16.4 18.8 0 9-8.9 14.4-6.4 4-21.5 4h-173q-12.2 0-19-4.4-6.6-4.8-6.6-13.3 0-14 13.7-18.5 11.3-3.7 13-4.4 2-1 4-4.1 4.2-5.5 4.2-17.4V578.9q0-12-4.1-17.4-2-3-4.1-3.8-1.7-1-13-4.7-13.7-4.5-13.7-18.5 0-8.5 6.5-13 6.9-4.8 19.2-4.8h8.8zm105 238q31.4 4.7 48.2 10.5 17 5.8 30.7 15.7 14.4 10.6 22 25.3 7.8 14.7 7.8 31.1v70.8q0 11 7.1 11 2.8 0 4.5-1.4 2-1.8 5.5-6.2 8.5-11.6 17.4-11.6 5.8 0 11.6 6.1 5.8 6.2 5.8 12.3 0 10.6-10.2 26-10 15-25 27-14 11.3-30.4 16-16.4 5.2-38.6 5.2-45.1 0-70.4-25.6-25.3-26-25.3-72.1v-57.5q0-19.1-.4-22.2-1.7-13.7-9.5-23.6-10-12-28.4-14V741q18.4-2.7 26.3-9.5 6.8-6.2 9.2-14 2.8-7.9 2.8-23.3v-90.6q0-21.5-8.6-32-8.2-10.7-30-16.8v-38h8.8q38 0 64.6 2.8 39.7 3.7 70.8 26 44.8 31.7 44.8 90.5 0 48.2-30.1 79-12.7 13-29.8 21.2-16.7 8.2-51.2 18.4zM1100.3 544.4q-17.4 6.2-24.6 16.8-7.2 10.6-7.2 31v305.6q0 30.1 8.2 42.4 6.5 10.3 23.6 14.7v37.6q-75.9-6.1-127.1-57-66.7-66.4-66.7-185 0-59.5 17.4-107.3 17.8-48.2 52.3-81.7 26.4-25.6 56.8-39 30.4-13.3 67.3-15zm28 0v-36.9q37 1.7 67.4 15 30.7 13.4 57 39 69.8 68 69.8 189 0 118.6-66.7 185-51.2 51.2-127.5 57v-37.6q9-2 13.7-5.1 5.1-3.4 9.2-9.6 9.3-14 9.3-42.4V592.3q0-18.2-6.2-28.8-4-7.1-9.9-11.2-5.5-4.1-16-7.9z" style="fill:#fff"/>
</svg>
